<svg width="71" height="99" viewBox="0 0 71 99" fill="none" xmlns="http://www.w3.org/2000/svg">
<path d="M69.1445 61.8108H61.4102C56.978 61.8149 52.6321 63.0368 48.8471 65.3428C45.0621 67.6489 41.9834 70.9505 39.9473 74.8873V58.048H45.6111C45.863 58.0479 46.1099 57.9776 46.324 57.8449C46.5381 57.7123 46.7109 57.5225 46.8231 57.297L54.5637 41.7223C54.6567 41.5351 54.7051 41.3289 54.7052 41.1198V26.8994H57.3976C57.7565 26.8994 58.1008 26.7568 58.3546 26.5029C58.6085 26.2491 58.7511 25.9048 58.7511 25.5459V19.0088C58.7511 18.6498 58.6085 18.3055 58.3546 18.0517C58.1008 17.7979 57.7565 17.6553 57.3976 17.6553H51.8064V2.90039C51.8056 2.13141 51.4997 1.39416 50.956 0.850409C50.4122 0.306658 49.675 0.000818936 48.906 0L45.8122 0C45.0433 0.000818936 44.306 0.306658 43.7623 0.850409C43.2185 1.39416 42.9127 2.13141 42.9118 2.90039V17.6553H28.0881V2.90039C28.0873 2.13141 27.7815 1.39416 27.2377 0.850409C26.694 0.306658 25.9567 0.000818936 25.1878 0L22.094 0C21.325 0.000818936 20.5878 0.306658 20.044 0.850409C19.5003 1.39416 19.1944 2.13141 19.1936 2.90039V17.6553H13.6017C13.2427 17.6553 12.8984 17.7979 12.6446 18.0517C12.3907 18.3055 12.2481 18.6498 12.2481 19.0088V25.5466C12.2481 25.9056 12.3907 26.2499 12.6446 26.5037C12.8984 26.7576 13.2427 26.9002 13.6017 26.9002H16.294V41.1206C16.2941 41.3296 16.3425 41.5358 16.4355 41.7231L24.1761 57.297C24.2883 57.5225 24.4612 57.7123 24.6753 57.8449C24.8894 57.9776 25.1362 58.0479 25.3881 58.048H31.0527V74.8873C29.0166 70.9505 25.9379 67.6489 22.1529 65.3428C18.3679 63.0368 14.022 61.8149 9.58984 61.8108H1.85547C1.49649 61.8108 1.15222 61.9534 0.898389 62.2072C0.644556 62.4611 0.501953 62.8053 0.501953 63.1643C0.509118 69.5724 3.05789 75.7159 7.58907 80.2471C12.1203 84.7783 18.2638 87.3271 24.6719 87.3342H31.0527V97.6465C31.0527 98.0055 31.1953 98.3497 31.4492 98.6036C31.703 98.8574 32.0473 99 32.4062 99H38.5938C38.9527 99 39.297 98.8574 39.5508 98.6036C39.8047 98.3497 39.9473 98.0055 39.9473 97.6465V87.3342H46.3281C52.7362 87.3271 58.8797 84.7783 63.4109 80.2471C67.9421 75.7159 70.4909 69.5724 70.498 63.1643C70.498 62.8053 70.3554 62.4611 70.1016 62.2072C69.8478 61.9534 69.5035 61.8108 69.1445 61.8108ZM45.6189 2.90039C45.6189 2.84911 45.6393 2.79993 45.6755 2.76366C45.7118 2.7274 45.761 2.70703 45.8122 2.70703H48.906C48.9573 2.70703 49.0065 2.7274 49.0427 2.76366C49.079 2.79993 49.0993 2.84911 49.0993 2.90039V17.6553H45.6189V2.90039ZM21.9006 2.90039C21.9006 2.84911 21.921 2.79993 21.9573 2.76366C21.9935 2.7274 22.0427 2.70703 22.094 2.70703H25.1878C25.239 2.70703 25.2882 2.7274 25.3245 2.76366C25.3607 2.79993 25.3811 2.84911 25.3811 2.90039V17.6553H21.9006V2.90039ZM14.9552 20.3623H56.044V24.1931H14.9552V20.3623ZM19.001 40.8027V26.8994H22.2866V35.1914C22.2866 35.5504 22.4292 35.8947 22.683 36.1485C22.9369 36.4023 23.2811 36.5449 23.6401 36.5449C23.9991 36.5449 24.3434 36.4023 24.5972 36.1485C24.851 35.8947 24.9936 35.5504 24.9936 35.1914V26.8994H46.0056V35.1914C46.0056 35.5504 46.1482 35.8947 46.402 36.1485C46.6559 36.4023 47.0001 36.5449 47.3591 36.5449C47.7181 36.5449 48.0624 36.4023 48.3162 36.1485C48.57 35.8947 48.7126 35.5504 48.7126 35.1914V26.8994H51.9982V40.8019L44.7727 55.3425H26.2273L19.001 40.8027ZM3.24766 64.5178H9.58984C14.787 64.5247 19.8055 66.4146 23.7162 69.8376C27.6268 73.2606 30.1645 77.9848 30.8594 83.1352L17.943 73.4874C17.8016 73.3713 17.6382 73.2851 17.4626 73.2339C17.287 73.1828 17.1028 73.1678 16.9212 73.1898C16.7396 73.2118 16.5644 73.2704 16.4061 73.362C16.2478 73.4536 16.1097 73.5764 16.0001 73.7228C15.8906 73.8693 15.8119 74.0365 15.7687 74.2142C15.7256 74.392 15.7189 74.5766 15.7491 74.757C15.7793 74.9374 15.8458 75.1098 15.9445 75.2638C16.0432 75.4178 16.1721 75.5502 16.3234 75.653L28.3341 84.6249H24.6719C19.2154 84.6195 13.9654 82.5387 9.9867 78.8047C6.00805 75.0706 3.59878 69.963 3.24766 64.5178ZM37.2402 96.293H33.7598V58.048H37.2402V96.293ZM46.3281 84.6272H42.6682L54.6813 75.6569C54.8325 75.5541 54.9614 75.4217 55.0601 75.2677C55.1588 75.1137 55.2253 74.9413 55.2555 74.7609C55.2857 74.5805 55.2791 74.3959 55.2359 74.2181C55.1928 74.0404 55.1141 73.8732 55.0045 73.7267C54.895 73.5802 54.7569 73.4575 54.5986 73.3659C54.4402 73.2742 54.265 73.2157 54.0834 73.1936C53.9018 73.1716 53.7177 73.1867 53.5421 73.2378C53.3665 73.289 53.203 73.3752 53.0617 73.4913L40.1406 83.1352C40.8355 77.9848 43.3732 73.2606 47.2838 69.8376C51.1945 66.4146 56.213 64.5247 61.4102 64.5178H67.7523C67.4018 69.9634 64.9928 75.0716 61.014 78.8062C57.0353 82.5407 51.7849 84.6218 46.3281 84.6272Z" fill="black"/>
<path d="M39.4465 41.8526C39.6356 41.6633 39.7644 41.4222 39.8166 41.1597C39.8687 40.8972 39.8419 40.6252 39.7396 40.3779C39.6372 40.1307 39.4638 39.9194 39.2413 39.7706C39.0189 39.6219 38.7573 39.5424 38.4897 39.5423H35.1345L39.4465 35.2304C39.7003 34.9765 39.8429 34.6323 39.8429 34.2733C39.8429 33.9143 39.7003 33.57 39.4465 33.3161C39.1926 33.0623 38.8483 32.9197 38.4893 32.9197C38.1303 32.9197 37.786 33.0623 37.5322 33.3161L30.91 39.9391C30.7209 40.1284 30.5921 40.3695 30.5399 40.632C30.4877 40.8944 30.5145 41.1665 30.6169 41.4137C30.7193 41.6609 30.8927 41.8723 31.1151 42.021C31.3376 42.1697 31.5992 42.2492 31.8668 42.2493H35.2219L30.2812 47.1893C30.1555 47.315 30.0558 47.4642 29.9878 47.6284C29.9198 47.7926 29.8848 47.9687 29.8848 48.1464C29.8848 48.3242 29.9198 48.5002 29.9878 48.6644C30.0558 48.8286 30.1555 48.9778 30.2812 49.1035C30.4069 49.2292 30.5561 49.3289 30.7204 49.397C30.8846 49.465 31.0606 49.5 31.2383 49.5C31.4161 49.5 31.5921 49.465 31.7563 49.397C31.9206 49.3289 32.0698 49.2292 32.1955 49.1035L39.4465 41.8526Z" fill="black"/>
</svg>
