<svg width="97" height="97" viewBox="0 0 97 97" fill="none" xmlns="http://www.w3.org/2000/svg">
<path d="M96.9394 63.2616C96.9326 63.2374 96.9257 63.2146 96.9174 63.1904C96.8766 63.0744 96.8197 62.9647 96.7484 62.8645C96.7446 62.8584 96.7431 62.8516 96.7386 62.8456L81.5702 42.4142C81.4468 42.248 81.2863 42.113 81.1014 42.0199C80.9165 41.9269 80.7124 41.8784 80.5055 41.8784H16.4945C16.2876 41.8784 16.0835 41.9269 15.8986 42.0199C15.7137 42.113 15.5532 42.248 15.4298 42.4142L0.261445 62.8463C0.256898 62.8524 0.256141 62.8592 0.251594 62.8653C0.180303 62.9655 0.123418 63.0751 0.0826016 63.1911C0.0742656 63.2146 0.0674453 63.2381 0.060625 63.2624C0.0223071 63.3838 0.00188429 63.5102 0 63.6375V68.9035C0.0014038 70.0587 0.460939 71.1663 1.27781 71.9831C2.09468 72.8 3.20219 73.2595 4.35742 73.2609H40.7324V81.4605H35.9499C35.6352 81.4606 35.3309 81.5726 35.0913 81.7765L27.5071 88.2179C27.3606 88.3423 27.2429 88.4971 27.1622 88.6715C27.0814 88.8459 27.0396 89.0358 27.0395 89.228V95.6694C27.0395 96.0212 27.1792 96.3585 27.4279 96.6072C27.6766 96.8559 28.014 96.9956 28.3657 96.9956H68.6336C68.9853 96.9956 69.3226 96.8559 69.5713 96.6072C69.82 96.3585 69.9597 96.0212 69.9597 95.6694V89.228C69.9597 89.0358 69.9178 88.8459 69.8371 88.6715C69.7563 88.4971 69.6386 88.3423 69.4922 88.2179L61.908 81.7765C61.6683 81.5726 61.364 81.4606 61.0494 81.4605H56.2676V73.2594H92.6426C93.7978 73.258 94.9053 72.7985 95.7222 71.9816C96.5391 71.1647 96.9986 70.0572 97 68.902V63.6367C96.9981 63.5094 96.9777 63.383 96.9394 63.2616ZM26.9652 62.3105L30.5853 53.6321H47.0026V62.3105H26.9652ZM3.9626 62.3105L10.404 53.6328H27.7109L24.0909 62.3105H3.9626ZM47.0064 44.5315V50.9805H31.6917L34.382 44.5315H47.0064ZM62.2793 44.5315L64.9695 50.9805H49.6617V44.5315H62.2793ZM49.6549 53.6321H66.0729L69.693 62.3098H49.6549V53.6321ZM72.5666 62.3105L68.9465 53.6321H86.5952L93.0366 62.3098L72.5666 62.3105ZM84.6257 50.9805H67.8401L65.1499 44.5315H79.8378L84.6257 50.9805ZM17.1614 44.5315H31.5076L28.8173 50.9805H12.3728L17.1614 44.5315ZM67.3074 89.8434V94.3478H29.6926V89.8434L36.4371 84.112H60.5621L67.3074 89.8434ZM53.6152 81.4589H43.3848V73.2594H53.6152V81.4589ZM92.6426 70.6071H4.35742C3.90533 70.6067 3.47187 70.4269 3.15219 70.1072C2.83252 69.7875 2.65275 69.3541 2.65234 68.902V64.9614H94.3477V68.902C94.3473 69.3541 94.1675 69.7875 93.8478 70.1072C93.5281 70.4269 93.0947 70.6067 92.6426 70.6071Z" fill="white"/>
<path d="M48.4999 27.6904C50.2156 27.6904 51.8927 27.1817 53.3193 26.2285C54.7458 25.2753 55.8577 23.9205 56.5142 22.3354C57.1708 20.7503 57.3426 19.0061 57.0079 17.3234C56.6732 15.6407 55.847 14.095 54.6338 12.8818C53.4206 11.6686 51.8749 10.8425 50.1922 10.5077C48.5095 10.173 46.7653 10.3448 45.1802 11.0014C43.5951 11.658 42.2403 12.7698 41.2871 14.1964C40.334 15.6229 39.8252 17.3001 39.8252 19.0157C39.8276 21.3157 40.7423 23.5207 42.3686 25.147C43.9949 26.7733 46.1999 27.688 48.4999 27.6904ZM48.4999 12.9934C49.691 12.9934 50.8553 13.3466 51.8457 14.0084C52.8361 14.6701 53.608 15.6107 54.0638 16.7111C54.5196 17.8115 54.6389 19.0224 54.4065 20.1906C54.1741 21.3589 53.6005 22.4319 52.7583 23.2742C51.9161 24.1164 50.843 24.69 49.6748 24.9224C48.5066 25.1547 47.2957 25.0355 46.1952 24.5797C45.0948 24.1238 44.1542 23.3519 43.4925 22.3616C42.8307 21.3712 42.4775 20.2069 42.4775 19.0157C42.4793 17.4191 43.1144 15.8883 44.2434 14.7593C45.3725 13.6303 46.9032 12.9952 48.4999 12.9934Z" fill="white"/>
<path d="M48.3291 7.29395C48.6808 7.29395 49.0181 7.15422 49.2668 6.90552C49.5156 6.65681 49.6553 6.3195 49.6553 5.96777V1.32617C49.6553 0.974449 49.5156 0.637132 49.2668 0.388427C49.0181 0.139721 48.6808 0 48.3291 0C47.9774 0 47.6401 0.139721 47.3914 0.388427C47.1427 0.637132 47.0029 0.974449 47.0029 1.32617V5.96777C47.0029 6.3195 47.1427 6.65681 47.3914 6.90552C47.6401 7.15422 47.9774 7.29395 48.3291 7.29395Z" fill="white"/>
<path d="M47.0029 32.0645V36.7061C47.0029 37.0578 47.1427 37.3951 47.3914 37.6438C47.6401 37.8925 47.9774 38.0322 48.3291 38.0322C48.6808 38.0322 49.0181 37.8925 49.2668 37.6438C49.5156 37.3951 49.6553 37.0578 49.6553 36.7061V32.0645C49.6553 31.7127 49.5156 31.3754 49.2668 31.1267C49.0181 30.878 48.6808 30.7383 48.3291 30.7383C47.9774 30.7383 47.6401 30.878 47.3914 31.1267C47.1427 31.3754 47.0029 31.7127 47.0029 32.0645Z" fill="white"/>
<path d="M57.555 11.1156C57.7292 11.1157 57.9016 11.0815 58.0625 11.0148C58.2234 10.948 58.3695 10.8502 58.4924 10.7268L61.7745 7.44473C62.0123 7.19393 62.1428 6.8602 62.1382 6.51461C62.1337 6.16902 61.9943 5.83887 61.7499 5.59448C61.5055 5.35009 61.1754 5.21076 60.8298 5.20617C60.4842 5.20158 60.1505 5.33209 59.8997 5.5699L56.6176 8.85198C56.4323 9.03745 56.3061 9.27369 56.2549 9.53086C56.2038 9.78802 56.2301 10.0546 56.3304 10.2968C56.4307 10.5391 56.6006 10.7461 56.8186 10.8919C57.0365 11.0376 57.2928 11.1154 57.555 11.1156Z" fill="white"/>
<path d="M38.1652 27.3047L34.8831 30.5868C34.6344 30.8355 34.4946 31.1728 34.4946 31.5246C34.4946 31.8763 34.6344 32.2137 34.8831 32.4624C35.1318 32.7111 35.4691 32.8508 35.8209 32.8508C36.1726 32.8508 36.5099 32.7111 36.7587 32.4624L40.0408 29.1803C40.2895 28.9316 40.4292 28.5942 40.4292 28.2425C40.4292 27.8908 40.2895 27.5534 40.0408 27.3047C39.792 27.056 39.4547 26.9163 39.103 26.9163C38.7512 26.9163 38.4139 27.056 38.1652 27.3047Z" fill="white"/>
<path d="M60.0518 19.0159C60.0518 19.3676 60.1915 19.7049 60.4402 19.9536C60.6889 20.2023 61.0262 20.342 61.3779 20.342H66.0195C66.3713 20.342 66.7086 20.2023 66.9573 19.9536C67.206 19.7049 67.3457 19.3676 67.3457 19.0159C67.3457 18.6641 67.206 18.3268 66.9573 18.0781C66.7086 17.8294 66.3713 17.6897 66.0195 17.6897H61.3779C61.0262 17.6897 60.6889 17.8294 60.4402 18.0781C60.1915 18.3268 60.0518 18.6641 60.0518 19.0159Z" fill="white"/>
<path d="M30.6396 20.342H35.2813C35.633 20.342 35.9703 20.2023 36.219 19.9536C36.4677 19.7049 36.6074 19.3676 36.6074 19.0159C36.6074 18.6641 36.4677 18.3268 36.219 18.0781C35.9703 17.8294 35.633 17.6897 35.2813 17.6897H30.6396C30.2879 17.6897 29.9506 17.8294 29.7019 18.0781C29.4532 18.3268 29.3135 18.6641 29.3135 19.0159C29.3135 19.3676 29.4532 19.7049 29.7019 19.9536C29.9506 20.2023 30.2879 20.342 30.6396 20.342Z" fill="white"/>
<path d="M56.6178 27.3048C56.4945 27.4279 56.3968 27.5741 56.3301 27.735C56.2633 27.8959 56.229 28.0684 56.229 28.2426C56.229 28.4168 56.2633 28.5893 56.3301 28.7502C56.3968 28.9111 56.4945 29.0573 56.6178 29.1804L59.8999 32.4625C60.1486 32.7112 60.4859 32.8509 60.8377 32.8509C61.1894 32.8509 61.5267 32.7112 61.7754 32.4625C62.0242 32.2138 62.1639 31.8764 62.1639 31.5247C62.1639 31.1729 62.0242 30.8356 61.7754 30.5869L58.4934 27.3048C58.3703 27.1816 58.2241 27.0838 58.0632 27.0171C57.9023 26.9504 57.7298 26.916 57.5556 26.916C57.3814 26.916 57.2089 26.9504 57.048 27.0171C56.8871 27.0838 56.7409 27.1816 56.6178 27.3048Z" fill="white"/>
<path d="M38.1649 10.727C38.4137 10.9757 38.751 11.1154 39.1027 11.1154C39.4545 11.1154 39.7918 10.9757 40.0405 10.727C40.2893 10.4783 40.429 10.1409 40.429 9.78921C40.429 9.43747 40.2893 9.10013 40.0405 8.85142L36.7577 5.57009C36.509 5.32137 36.1716 5.18164 35.8199 5.18164C35.4682 5.18164 35.1308 5.32137 34.8821 5.57009C34.6334 5.81881 34.4937 6.15614 34.4937 6.50788C34.4937 6.85962 34.6334 7.19695 34.8821 7.44567L38.1649 10.727Z" fill="white"/>
</svg>
