<svg width="104" height="93" viewBox="0 0 104 93" fill="none" xmlns="http://www.w3.org/2000/svg">
<path d="M51.9983 64.3809C39.9554 64.3809 30.1566 54.5821 30.1566 42.5392C30.1566 30.8762 50.2028 3.12026 51.0557 1.94464L51.9995 0.645508L52.9432 1.94464C53.7961 3.12026 73.8411 30.8762 73.8411 42.5392C73.84 54.5832 64.0412 64.3809 51.9983 64.3809ZM51.9983 4.6396C47.9774 10.3558 32.4869 32.9956 32.4869 42.5392C32.4869 53.2981 41.2394 62.0506 51.9983 62.0506C62.756 62.0506 71.5097 53.2981 71.5097 42.5392C71.5097 32.9932 56.0192 10.3546 51.9983 4.6396ZM103.266 82.4522C99.3344 82.4522 97.3594 81.1274 95.4498 79.8469C93.6042 78.6095 92.0103 77.5411 88.6162 77.5411C85.2222 77.5411 83.6283 78.6095 81.7827 79.8469C79.873 81.1286 77.8981 82.4522 73.967 82.4522C70.0358 82.4522 68.062 81.1274 66.1512 79.8458C64.3068 78.6084 62.7129 77.5399 59.32 77.5399C55.926 77.5399 54.3332 78.6084 52.4877 79.8458C50.578 81.1274 48.6042 82.451 44.6719 82.451C40.7407 82.451 38.767 81.1262 36.8562 79.8446C35.0117 78.6072 33.4178 77.5388 30.025 77.5388C26.6321 77.5388 25.0393 78.6072 23.1926 79.8446C21.2829 81.1262 19.3092 82.4498 15.378 82.4498C11.448 82.4498 9.47426 81.1251 7.5646 79.8446C5.71902 78.6095 4.12628 77.5411 0.733398 77.5411V79.8714C3.41671 79.8714 4.55039 80.6322 6.26664 81.7834C8.25902 83.1198 10.7384 84.7836 15.378 84.7836C20.0188 84.7836 22.4982 83.1198 24.4917 81.7822C26.208 80.631 27.3416 79.8714 30.025 79.8714C32.7083 79.8714 33.842 80.6311 35.5594 81.7834C37.5518 83.1198 40.0312 84.7836 44.6719 84.7836C49.3127 84.7836 51.7932 83.1198 53.7856 81.7822C55.5019 80.631 56.6355 79.8714 59.32 79.8714C62.0033 79.8714 63.137 80.6311 64.8544 81.7834C66.8468 83.1198 69.3262 84.7836 73.967 84.7836C78.6077 84.7836 81.0871 83.1198 83.0807 81.7834C84.7969 80.6322 85.9306 79.8714 88.6151 79.8714C91.3007 79.8714 92.4344 80.6322 94.1507 81.7834C96.143 83.1198 98.6236 84.7836 103.264 84.7836V82.4522H103.266ZM103.266 74.8823C100.58 74.8823 99.4462 74.1214 97.7276 72.9679C95.7352 71.6327 93.2547 69.9689 88.6162 69.9689C83.9778 69.9689 81.4973 71.6327 79.5025 72.9691C77.7863 74.1203 76.6526 74.8811 73.967 74.8811C71.2825 74.8811 70.1488 74.1203 68.4326 72.9679C66.439 71.6315 63.9584 69.9677 59.32 69.9677C54.6816 69.9677 52.201 71.6304 50.2075 72.9679C48.4912 74.1191 47.3576 74.8799 44.6731 74.8799C41.9886 74.8799 40.8549 74.1191 39.1387 72.9668C37.1451 71.6304 34.6645 69.9665 30.0261 69.9665C25.3877 69.9665 22.9071 71.6304 20.9136 72.9668C19.1973 74.1179 18.0637 74.8788 15.3792 74.8788C12.6947 74.8788 11.5622 74.1179 9.84478 72.9656C7.85122 71.6327 5.37065 69.97 0.733398 69.97V72.3003C4.66224 72.3003 6.63599 73.6239 8.54681 74.9056C10.3912 76.1441 11.984 77.2125 15.378 77.2125C18.7721 77.2125 20.366 76.1441 22.2115 74.9056C24.1212 73.6251 26.0961 72.3003 30.0261 72.3003C33.9561 72.3003 35.9299 73.6251 37.8407 74.9056C39.6851 76.1441 41.279 77.2125 44.6731 77.2125C48.0671 77.2125 49.661 76.1441 51.5078 74.9044C53.4174 73.6239 55.3912 72.3003 59.3212 72.3003C63.2512 72.3003 65.2249 73.6251 67.1358 74.9056C68.9802 76.1441 70.5741 77.2125 73.9681 77.2125C77.3622 77.2125 78.9561 76.1441 80.8028 74.9056C82.7125 73.6251 84.6874 72.3003 88.6174 72.3003C92.5474 72.3003 94.5212 73.6239 96.4332 74.9056C98.2776 76.1441 99.8715 77.2125 103.267 77.2125V74.8823H103.266ZM103.266 90.0232C99.3344 90.0232 97.3594 88.6985 95.4498 87.418C93.6042 86.1806 92.0103 85.1122 88.6162 85.1122C85.2222 85.1122 83.6283 86.1806 81.7827 87.418C79.873 88.6996 77.8981 90.0232 73.967 90.0232C70.0358 90.0232 68.062 88.6985 66.1512 87.4168C64.3068 86.1794 62.7129 85.111 59.32 85.111C55.926 85.111 54.3332 86.1794 52.4877 87.4168C50.578 88.6985 48.6042 90.0221 44.6719 90.0221C40.7407 90.0221 38.767 88.6973 36.8562 87.4156C35.0117 86.1783 33.4178 85.1098 30.025 85.1098C26.6321 85.1098 25.0393 86.1783 23.1926 87.4156C21.2829 88.6973 19.3092 90.0209 15.378 90.0209C11.448 90.0209 9.47426 88.6961 7.5646 87.4156C5.71902 86.1806 4.12628 85.1122 0.733398 85.1122V87.4424C3.41671 87.4424 4.55039 88.2033 6.26664 89.3544C8.25902 90.6908 10.7384 92.3547 15.378 92.3547C20.0188 92.3547 22.4982 90.6908 24.4917 89.3533C26.208 88.2021 27.3416 87.4424 30.025 87.4424C32.7083 87.4424 33.842 88.2021 35.5594 89.3544C37.5518 90.6908 40.0312 92.3547 44.6719 92.3547C49.3127 92.3547 51.7932 90.6908 53.7856 89.3533C55.5019 88.2021 56.6355 87.4424 59.32 87.4424C62.0033 87.4424 63.137 88.2021 64.8544 89.3544C66.8468 90.6908 69.3262 92.3547 73.967 92.3547C78.6077 92.3547 81.0871 90.6908 83.0807 89.3544C84.7969 88.2033 85.9306 87.4424 88.6151 87.4424C91.3007 87.4424 92.4344 88.2033 94.1507 89.3544C96.143 90.6908 98.6236 92.3547 103.264 92.3547V90.0232H103.266ZM45.9885 56.6898L49.1076 39.9759H40.4669L56.3221 16.6475L53.4151 32.4177H61.4942L45.9885 56.6898ZM44.8677 37.6456H51.9132L50.479 45.3332L57.2414 34.7479H50.6176L52.0239 27.1198L44.8677 37.6456Z" fill="white" stroke="white" stroke-width="0.2"/>
</svg>
