<svg xmlns="http://www.w3.org/2000/svg" width="14" height="11" viewBox="0 0 14 11"><rect width="2.53" height="6" x="6.323" y="2.345" fill="#525C69" transform="translate(7.587367, 5.345101) rotate(-90.000000) translate(-7.587367, -5.345101)"/><polygon fill="#525C69" points="11.587 7.52 7.351 3.52 15.824 3.52" transform="translate(11.587367, 5.520283) rotate(-90.000000) translate(-11.587367, -5.520283)"/><path fill="#525C69" d="M6.58736682,9 L2.58736682,9 C2.5409919,9.1720618 2.44889523,9.0769726 2.58736682,9 L2.58736682,2 C2.44889523,2.01609343 2.5409919,1.92201582 2.58736682,2 L6.58736682,2 L6.58736682,0 L1.58736682,0 C0.878353106,0 0.587366822,0.299429833 0.587366822,1 L0.587366822,10 C0.587366822,10.6995586 0.878353106,11 1.58736682,11 L6.58736682,11 L6.58736682,9 Z"/></svg>