<svg xmlns="http://www.w3.org/2000/svg" xmlns:xlink="http://www.w3.org/1999/xlink" width="120" height="74" version="1.1" viewBox="0 0 120 74"><g id="В-отрисовку" fill="none" fill-rule="evenodd" stroke="none" stroke-width="1"><g id="02_Дизайн-слайдер-вкладки-Copy-2" transform="translate(-622.000000, -2049.000000)"><g id="Group-25" transform="translate(622.000000, 2049.000000)"><rect id="Rectangle-24" width="120" height="74" x="0" y="0" fill="#FFF" rx="2"/><g id="Group-23-Copy"><g transform="translate(7.000000, 9.000000)"><rect id="Rectangle-12" width="40" height="37" x="4" y="4" fill="#2FC6F6" opacity=".25"/><rect id="Rectangle-12-Copy" width="48" height="45" x="0" y="0" opacity=".197" rx="2"/><path id="Rectangle-12-Copy-2" fill="#525C69" d="M5.25,47 C4.55964406,47 4,46.3284271 4,45.5 C4,44.6715729 4.55964406,44 5.25,44 L42.75,44 C43.4403559,44 44,44.6715729 44,45.5 C44,46.3284271 43.4403559,47 42.75,47 L5.25,47 Z" opacity=".2"/><path id="Rectangle-12-Copy-3" fill="#525C69" d="M5.25,53 C4.55964406,53 4,52.3284271 4,51.5 C4,50.6715729 4.55964406,50 5.25,50 L42.75,50 C43.4403559,50 44,50.6715729 44,51.5 C44,52.3284271 43.4403559,53 42.75,53 L5.25,53 Z" opacity=".2"/><circle id="Oval-4" cx="32.5" cy="14.5" r="4.5" fill="#3AA8CB"/><polygon id="Path-2" fill="#3AA8CB" points="7 38 7 30.471 16.563 22 28.25 32.353 32.5 28.588 40.486 35.663 41 38"/></g></g><g id="-1" transform="translate(59.000000, 13.000000)"><rect id="Rectangle-12" width="13" height="12" x="0" y="0" fill="#2FC6F6" opacity=".25"/><path id="Rectangle-12-Copy-2" fill="#525C69" d="M0.40625,15 C0.18188432,15 -2.74768711e-17,14.5522847 0,14 C2.74768711e-17,13.4477153 0.18188432,13 0.40625,13 L12.59375,13 C12.8181157,13 13,13.4477153 13,14 C13,14.5522847 12.8181157,15 12.59375,15 L0.40625,15 Z" opacity=".2"/><path id="Rectangle-12-Copy-3" fill="#525C69" d="M0.40625,18 C0.18188432,18 -2.74768711e-17,17.5522847 0,17 C2.74768711e-17,16.4477153 0.18188432,16 0.40625,16 L12.59375,16 C12.8181157,16 13,16.4477153 13,17 C13,17.5522847 12.8181157,18 12.59375,18 L0.40625,18 Z" opacity=".2"/><circle id="Oval-4" cx="9.5" cy="3.5" r="1.5" fill="#3AA8CB"/><polygon id="Path-2" fill="#3AA8CB" points="1 11 1 8.647 4.094 6 7.875 9.235 9.25 8.059 11.834 10.27 12 11"/></g><g id="-1" transform="translate(59.000000, 38.000000)"><rect id="Rectangle-12" width="13" height="12" x="0" y="0" fill="#2FC6F6" opacity=".25"/><path id="Rectangle-12-Copy-2" fill="#525C69" d="M0.40625,15 C0.18188432,15 -2.74768711e-17,14.5522847 0,14 C2.74768711e-17,13.4477153 0.18188432,13 0.40625,13 L12.59375,13 C12.8181157,13 13,13.4477153 13,14 C13,14.5522847 12.8181157,15 12.59375,15 L0.40625,15 Z" opacity=".2"/><path id="Rectangle-12-Copy-3" fill="#525C69" d="M0.40625,18 C0.18188432,18 -2.74768711e-17,17.5522847 0,17 C2.74768711e-17,16.4477153 0.18188432,16 0.40625,16 L12.59375,16 C12.8181157,16 13,16.4477153 13,17 C13,17.5522847 12.8181157,18 12.59375,18 L0.40625,18 Z" opacity=".2"/><circle id="Oval-4" cx="9.5" cy="3.5" r="1.5" fill="#3AA8CB"/><polygon id="Path-2" fill="#3AA8CB" points="1 11 1 8.647 4.094 6 7.875 9.235 9.25 8.059 11.834 10.27 12 11"/></g><g id="-1" transform="translate(78.000000, 13.000000)"><rect id="Rectangle-12" width="13" height="12" x="0" y="0" fill="#2FC6F6" opacity=".25"/><path id="Rectangle-12-Copy-2" fill="#525C69" d="M0.40625,15 C0.18188432,15 -2.74768711e-17,14.5522847 0,14 C2.74768711e-17,13.4477153 0.18188432,13 0.40625,13 L12.59375,13 C12.8181157,13 13,13.4477153 13,14 C13,14.5522847 12.8181157,15 12.59375,15 L0.40625,15 Z" opacity=".2"/><path id="Rectangle-12-Copy-3" fill="#525C69" d="M0.40625,18 C0.18188432,18 -2.74768711e-17,17.5522847 0,17 C2.74768711e-17,16.4477153 0.18188432,16 0.40625,16 L12.59375,16 C12.8181157,16 13,16.4477153 13,17 C13,17.5522847 12.8181157,18 12.59375,18 L0.40625,18 Z" opacity=".2"/><circle id="Oval-4" cx="9.5" cy="3.5" r="1.5" fill="#3AA8CB"/><polygon id="Path-2" fill="#3AA8CB" points="1 11 1 8.647 4.094 6 7.875 9.235 9.25 8.059 11.834 10.27 12 11"/></g><g id="-1" transform="translate(78.000000, 38.000000)"><rect id="Rectangle-12" width="13" height="12" x="0" y="0" fill="#2FC6F6" opacity=".25"/><path id="Rectangle-12-Copy-2" fill="#525C69" d="M0.40625,15 C0.18188432,15 -2.74768711e-17,14.5522847 0,14 C2.74768711e-17,13.4477153 0.18188432,13 0.40625,13 L12.59375,13 C12.8181157,13 13,13.4477153 13,14 C13,14.5522847 12.8181157,15 12.59375,15 L0.40625,15 Z" opacity=".2"/><path id="Rectangle-12-Copy-3" fill="#525C69" d="M0.40625,18 C0.18188432,18 -2.74768711e-17,17.5522847 0,17 C2.74768711e-17,16.4477153 0.18188432,16 0.40625,16 L12.59375,16 C12.8181157,16 13,16.4477153 13,17 C13,17.5522847 12.8181157,18 12.59375,18 L0.40625,18 Z" opacity=".2"/><circle id="Oval-4" cx="9.5" cy="3.5" r="1.5" fill="#3AA8CB"/><polygon id="Path-2" fill="#3AA8CB" points="1 11 1 8.647 4.094 6 7.875 9.235 9.25 8.059 11.834 10.27 12 11"/></g><g id="-1" transform="translate(97.000000, 13.000000)"><rect id="Rectangle-12" width="13" height="12" x="0" y="0" fill="#2FC6F6" opacity=".25"/><path id="Rectangle-12-Copy-2" fill="#525C69" d="M0.40625,15 C0.18188432,15 -2.74768711e-17,14.5522847 0,14 C2.74768711e-17,13.4477153 0.18188432,13 0.40625,13 L12.59375,13 C12.8181157,13 13,13.4477153 13,14 C13,14.5522847 12.8181157,15 12.59375,15 L0.40625,15 Z" opacity=".2"/><path id="Rectangle-12-Copy-3" fill="#525C69" d="M0.40625,18 C0.18188432,18 -2.74768711e-17,17.5522847 0,17 C2.74768711e-17,16.4477153 0.18188432,16 0.40625,16 L12.59375,16 C12.8181157,16 13,16.4477153 13,17 C13,17.5522847 12.8181157,18 12.59375,18 L0.40625,18 Z" opacity=".2"/><circle id="Oval-4" cx="9.5" cy="3.5" r="1.5" fill="#3AA8CB"/><polygon id="Path-2" fill="#3AA8CB" points="1 11 1 8.647 4.094 6 7.875 9.235 9.25 8.059 11.834 10.27 12 11"/></g><g id="-1" transform="translate(97.000000, 38.000000)"><rect id="Rectangle-12" width="13" height="12" x="0" y="0" fill="#2FC6F6" opacity=".25"/><path id="Rectangle-12-Copy-2" fill="#525C69" d="M0.40625,15 C0.18188432,15 -2.74768711e-17,14.5522847 0,14 C2.74768711e-17,13.4477153 0.18188432,13 0.40625,13 L12.59375,13 C12.8181157,13 13,13.4477153 13,14 C13,14.5522847 12.8181157,15 12.59375,15 L0.40625,15 Z" opacity=".2"/><path id="Rectangle-12-Copy-3" fill="#525C69" d="M0.40625,18 C0.18188432,18 -2.74768711e-17,17.5522847 0,17 C2.74768711e-17,16.4477153 0.18188432,16 0.40625,16 L12.59375,16 C12.8181157,16 13,16.4477153 13,17 C13,17.5522847 12.8181157,18 12.59375,18 L0.40625,18 Z" opacity=".2"/><circle id="Oval-4" cx="9.5" cy="3.5" r="1.5" fill="#3AA8CB"/><polygon id="Path-2" fill="#3AA8CB" points="1 11 1 8.647 4.094 6 7.875 9.235 9.25 8.059 11.834 10.27 12 11"/></g></g></g></g></svg>