<svg xmlns="http://www.w3.org/2000/svg" xmlns:xlink="http://www.w3.org/1999/xlink" width="120" height="74" version="1.1" viewBox="0 0 120 74"><g id="В-отрисовку" fill="none" fill-rule="evenodd" stroke="none" stroke-width="1"><g id="02_Дизайн-слайдер-вкладки-Copy-2" transform="translate(-487.000000, -1872.000000)"><g id="Group-24-Copy-4" transform="translate(487.000000, 1872.000000)"><rect id="Rectangle-24" width="120" height="74" x="0" y="0" fill="#FFF" rx="2"/><g id="Rectangle-12" transform="translate(9.000000, 23.000000)"><rect width="16" height="15" x="3" y="3" fill="#2FC6F6" opacity=".25"/><path id="Rectangle-12-Copy-2" fill="#525C69" d="M3.5,21 C3.22385763,21 3,20.5522847 3,20 C3,19.4477153 3.22385763,19 3.5,19 L18.5,19 C18.7761424,19 19,19.4477153 19,20 C19,20.5522847 18.7761424,21 18.5,21 L3.5,21 Z" opacity=".2"/><path id="Rectangle-12-Copy-3" fill="#525C69" d="M3.5,25 C3.22385763,25 3,24.5522847 3,24 C3,23.4477153 3.22385763,23 3.5,23 L18.5,23 C18.7761424,23 19,23.4477153 19,24 C19,24.5522847 18.7761424,25 18.5,25 L3.5,25 Z" opacity=".2"/><circle id="Oval-4" cx="15" cy="7" r="2" fill="#3AA8CB"/><polygon id="Path-2" fill="#3AA8CB" points="4 17 4 14.176 7.938 11 12.75 14.882 14.5 13.471 17.789 16.124 18 17"/></g><g id="Rectangle-12" transform="translate(35.000000, 23.000000)"><rect width="16" height="15" x="3" y="3" fill="#2FC6F6" opacity=".25"/><path id="Rectangle-12-Copy-2" fill="#525C69" d="M3.5,21 C3.22385763,21 3,20.5522847 3,20 C3,19.4477153 3.22385763,19 3.5,19 L18.5,19 C18.7761424,19 19,19.4477153 19,20 C19,20.5522847 18.7761424,21 18.5,21 L3.5,21 Z" opacity=".2"/><path id="Rectangle-12-Copy-3" fill="#525C69" d="M3.5,25 C3.22385763,25 3,24.5522847 3,24 C3,23.4477153 3.22385763,23 3.5,23 L18.5,23 C18.7761424,23 19,23.4477153 19,24 C19,24.5522847 18.7761424,25 18.5,25 L3.5,25 Z" opacity=".2"/><circle id="Oval-4" cx="15" cy="7" r="2" fill="#3AA8CB"/><polygon id="Path-2" fill="#3AA8CB" points="4 17 4 14.176 7.938 11 12.75 14.882 14.5 13.471 17.789 16.124 18 17"/></g><g id="Rectangle-12" transform="translate(61.000000, 23.000000)"><rect width="16" height="15" x="3" y="3" fill="#2FC6F6" opacity=".25"/><path id="Rectangle-12-Copy-2" fill="#525C69" d="M3.5,21 C3.22385763,21 3,20.5522847 3,20 C3,19.4477153 3.22385763,19 3.5,19 L18.5,19 C18.7761424,19 19,19.4477153 19,20 C19,20.5522847 18.7761424,21 18.5,21 L3.5,21 Z" opacity=".2"/><path id="Rectangle-12-Copy-3" fill="#525C69" d="M3.5,25 C3.22385763,25 3,24.5522847 3,24 C3,23.4477153 3.22385763,23 3.5,23 L18.5,23 C18.7761424,23 19,23.4477153 19,24 C19,24.5522847 18.7761424,25 18.5,25 L3.5,25 Z" opacity=".2"/><circle id="Oval-4" cx="15" cy="7" r="2" fill="#3AA8CB"/><polygon id="Path-2" fill="#3AA8CB" points="4 17 4 14.176 7.938 11 12.75 14.882 14.5 13.471 17.789 16.124 18 17"/></g><g id="Rectangle-12" transform="translate(87.000000, 23.000000)"><rect width="16" height="15" x="3" y="3" fill="#2FC6F6" opacity=".25"/><path id="Rectangle-12-Copy-2" fill="#525C69" d="M3.5,21 C3.22385763,21 3,20.5522847 3,20 C3,19.4477153 3.22385763,19 3.5,19 L18.5,19 C18.7761424,19 19,19.4477153 19,20 C19,20.5522847 18.7761424,21 18.5,21 L3.5,21 Z" opacity=".2"/><path id="Rectangle-12-Copy-3" fill="#525C69" d="M3.5,25 C3.22385763,25 3,24.5522847 3,24 C3,23.4477153 3.22385763,23 3.5,23 L18.5,23 C18.7761424,23 19,23.4477153 19,24 C19,24.5522847 18.7761424,25 18.5,25 L3.5,25 Z" opacity=".2"/><circle id="Oval-4" cx="15" cy="7" r="2" fill="#3AA8CB"/><polygon id="Path-2" fill="#3AA8CB" points="4 17 4 14.176 7.938 11 12.75 14.882 14.5 13.471 17.789 16.124 18 17"/></g></g></g></g></svg>