<svg xmlns="http://www.w3.org/2000/svg" xmlns:xlink="http://www.w3.org/1999/xlink" width="120" height="74" version="1.1" viewBox="0 0 120 74"><g id="В-отрисовку" fill="none" fill-rule="evenodd" stroke="none" stroke-width="1"><g id="02_Дизайн-слайдер-вкладки-Copy-2" transform="translate(-488.000000, -1785.000000)"><g id="Group-23" transform="translate(488.000000, 1785.000000)"><rect id="Rectangle-24" width="120" height="74" x="0" y="0" fill="#FFF" rx="2"/><g id="Rectangle-12" transform="translate(34.000000, 8.000000)"><rect width="44" height="41" x="5" y="5" fill="#2FC6F6" fill-rule="evenodd" opacity=".25"/><rect id="Rectangle-12-Copy" width="53" height="50" x="0" y="0" opacity=".197" rx="2"/><path id="Rectangle-12-Copy-2" fill="#525C69" fill-rule="evenodd" d="M6.375,52 C5.61560847,52 5,51.3284271 5,50.5 C5,49.6715729 5.61560847,49 6.375,49 L47.625,49 C48.3843915,49 49,49.6715729 49,50.5 C49,51.3284271 48.3843915,52 47.625,52 L6.375,52 Z" opacity=".2"/><path id="Rectangle-12-Copy-3" fill="#525C69" fill-rule="evenodd" d="M6.375,59 C5.61560847,59 5,58.3284271 5,57.5 C5,56.6715729 5.61560847,56 6.375,56 L47.625,56 C48.3843915,56 49,56.6715729 49,57.5 C49,58.3284271 48.3843915,59 47.625,59 L6.375,59 Z" opacity=".2"/><circle id="Oval-4" cx="36" cy="16" r="5" fill="#3AA8CB" fill-rule="evenodd"/><polygon id="Path-2" fill="#3AA8CB" fill-rule="evenodd" points="8 43 8 34.529 18.688 25 31.75 36.647 36.5 32.412 45.426 40.371 46 43"/></g></g></g></g></svg>