<svg xmlns="http://www.w3.org/2000/svg" xmlns:xlink="http://www.w3.org/1999/xlink" width="120" height="74" version="1.1" viewBox="0 0 120 74"><g id="В-отрисовку" fill="none" fill-rule="evenodd" stroke="none" stroke-width="1"><g id="02_Дизайн-слайдер-вкладки-Copy-2" transform="translate(-622.000000, -1872.000000)"><g id="Group-24-Copy-3" transform="translate(622.000000, 1872.000000)"><rect id="Rectangle-24" width="120" height="74" x="0" y="0" fill="#FFF" rx="2"/><g id="Rectangle-12" transform="translate(9.000000, 19.000000)"><rect width="23" height="22" x="3" y="3" fill="#2FC6F6" fill-rule="evenodd" opacity=".25"/><rect id="Rectangle-12-Copy" width="29" height="28" x="0" y="0" opacity=".197" rx="2"/><path id="Rectangle-12-Copy-2" fill="#525C69" fill-rule="evenodd" d="M3.71875,29 C3.32179534,29 3,28.5522847 3,28 C3,27.4477153 3.32179534,27 3.71875,27 L25.28125,27 C25.6782047,27 26,27.4477153 26,28 C26,28.5522847 25.6782047,29 25.28125,29 L3.71875,29 Z" opacity=".2"/><path id="Rectangle-12-Copy-3" fill="#525C69" fill-rule="evenodd" d="M3.71875,33 C3.32179534,33 3,32.5522847 3,32 C3,31.4477153 3.32179534,31 3.71875,31 L25.28125,31 C25.6782047,31 26,31.4477153 26,32 C26,32.5522847 25.6782047,33 25.28125,33 L3.71875,33 Z" opacity=".2"/><circle id="Oval-4" cx="19.5" cy="9.5" r="2.5" fill="#3AA8CB" fill-rule="evenodd"/><polygon id="Path-2" fill="#3AA8CB" fill-rule="evenodd" points="5 23 5 19.235 10.344 15 16.875 20.176 19.25 18.294 23.713 21.831 24 23"/></g><g id="Rectangle-12" transform="translate(45.000000, 19.000000)"><rect width="23" height="22" x="3" y="3" fill="#2FC6F6" fill-rule="evenodd" opacity=".25"/><rect id="Rectangle-12-Copy" width="29" height="28" x="0" y="0" opacity=".197" rx="2"/><path id="Rectangle-12-Copy-2" fill="#525C69" fill-rule="evenodd" d="M3.71875,29 C3.32179534,29 3,28.5522847 3,28 C3,27.4477153 3.32179534,27 3.71875,27 L25.28125,27 C25.6782047,27 26,27.4477153 26,28 C26,28.5522847 25.6782047,29 25.28125,29 L3.71875,29 Z" opacity=".2"/><path id="Rectangle-12-Copy-3" fill="#525C69" fill-rule="evenodd" d="M3.71875,33 C3.32179534,33 3,32.5522847 3,32 C3,31.4477153 3.32179534,31 3.71875,31 L25.28125,31 C25.6782047,31 26,31.4477153 26,32 C26,32.5522847 25.6782047,33 25.28125,33 L3.71875,33 Z" opacity=".2"/><circle id="Oval-4" cx="19.5" cy="9.5" r="2.5" fill="#3AA8CB" fill-rule="evenodd"/><polygon id="Path-2" fill="#3AA8CB" fill-rule="evenodd" points="5 23 5 19.235 10.344 15 16.875 20.176 19.25 18.294 23.713 21.831 24 23"/></g><g id="Rectangle-12" transform="translate(80.000000, 19.000000)"><rect width="23" height="22" x="3" y="3" fill="#2FC6F6" fill-rule="evenodd" opacity=".25"/><rect id="Rectangle-12-Copy" width="29" height="28" x="0" y="0" opacity=".197" rx="2"/><path id="Rectangle-12-Copy-2" fill="#525C69" fill-rule="evenodd" d="M3.71875,29 C3.32179534,29 3,28.5522847 3,28 C3,27.4477153 3.32179534,27 3.71875,27 L25.28125,27 C25.6782047,27 26,27.4477153 26,28 C26,28.5522847 25.6782047,29 25.28125,29 L3.71875,29 Z" opacity=".2"/><path id="Rectangle-12-Copy-3" fill="#525C69" fill-rule="evenodd" d="M3.71875,33 C3.32179534,33 3,32.5522847 3,32 C3,31.4477153 3.32179534,31 3.71875,31 L25.28125,31 C25.6782047,31 26,31.4477153 26,32 C26,32.5522847 25.6782047,33 25.28125,33 L3.71875,33 Z" opacity=".2"/><circle id="Oval-4" cx="19.5" cy="9.5" r="2.5" fill="#3AA8CB" fill-rule="evenodd"/><polygon id="Path-2" fill="#3AA8CB" fill-rule="evenodd" points="5 23 5 19.235 10.344 15 16.875 20.176 19.25 18.294 23.713 21.831 24 23"/></g></g></g></g></svg>