<svg xmlns="http://www.w3.org/2000/svg" xmlns:xlink="http://www.w3.org/1999/xlink" width="20" height="12" version="1.1" viewBox="0 0 20 12"><title>H4</title><desc>Created with Sketch.</desc><g id="Редактор-финал" fill="none" fill-rule="evenodd" stroke="none" stroke-width="1"><g id="01_Редактирование" fill="#525C69" transform="translate(-1027.000000, -1611.000000)"><g id="Панелька" transform="translate(589.000000, 1596.000000)"><path id="H4" d="M447.631035,27.0007461 L445.756035,27.0007461 L445.756035,21.8523086 L440.49041,21.8523086 L440.49041,27.0007461 L438.623223,27.0007461 L438.623223,15.5788711 L440.49041,15.5788711 L440.49041,20.2507461 L445.756035,20.2507461 L445.756035,15.5788711 L447.631035,15.5788711 L447.631035,27.0007461 Z M457.982598,24.5085586 L456.443535,24.5085586 L456.443535,27.0007461 L454.654473,27.0007461 L454.654473,24.5085586 L449.435723,24.5085586 L449.435723,23.0944961 L454.654473,15.5476211 L456.443535,15.5476211 L456.443535,22.9851211 L457.982598,22.9851211 L457.982598,24.5085586 Z M454.654473,22.9851211 L454.654473,20.1179336 C454.654473,19.0970952 454.680514,18.261166 454.732598,17.6101211 L454.670098,17.6101211 C454.524264,17.9538728 454.295099,18.3705353 453.982598,18.8601211 L451.14666,22.9851211 L454.654473,22.9851211 Z"/></g></g></g></svg>