<svg xmlns="http://www.w3.org/2000/svg" xmlns:xlink="http://www.w3.org/1999/xlink" width="124" height="40" version="1.1" viewBox="0 0 124 40"><g id="В-отрисовку" fill="none" fill-rule="evenodd" stroke="none" stroke-width="1"><g id="02_Дизайн-слайдер-вкладки-Copy-2" transform="translate(-37.000000, -1694.000000)"><g id="Group-28" transform="translate(35.000000, 1635.000000)"><g id="Group-17" transform="translate(2.000000, 2.000000)"><g id="Group-19" transform="translate(0.000000, 57.000000)"><rect id="Rectangle-19" width="124" height="40" x="0" y="0"/><path id="Rectangle-19-Copy-7" fill="#A8ADB4" d="M8,15 L20,15 C20.5522847,15 21,15.4477153 21,16 L21,28 C21,28.5522847 20.5522847,29 20,29 L8,29 C7.44771525,29 7,28.5522847 7,28 L7,16 C7,15.4477153 7.44771525,15 8,15 Z" opacity=".3"/><path id="Rectangle-19-Copy-8" fill="#A8ADB4" d="M25,15 L37,15 C37.5522847,15 38,15.4477153 38,16 L38,28 C38,28.5522847 37.5522847,29 37,29 L25,29 C24.4477153,29 24,28.5522847 24,28 L24,16 C24,15.4477153 24.4477153,15 25,15 Z" opacity=".3"/><rect id="Rectangle-19-Copy-9" width="14" height="14" x="41" y="15" fill="#A8ADB4" opacity=".3" rx="1"/><rect id="Rectangle-19-Copy-10" width="32" height="2" x="7" y="9" fill="#A8ADB4" opacity=".3" rx="1"/></g></g></g></g></g></svg>