<svg xmlns="http://www.w3.org/2000/svg" xmlns:xlink="http://www.w3.org/1999/xlink" width="124" height="44" version="1.1" viewBox="0 0 124 44"><g id="В-отрисовку" fill="none" fill-rule="evenodd" stroke="none" stroke-width="1"><g id="02_Дизайн-слайдер-вкладки-Copy-2" transform="translate(-37.000000, -1734.000000)"><g id="Group-28" transform="translate(35.000000, 1635.000000)"><g id="Group-17" transform="translate(2.000000, 2.000000)"><g id="Group-20" transform="translate(0.000000, 97.000000)"><rect id="Rectangle-20" width="124" height="44" x="0" y="0"/><rect id="Rectangle-19-Copy-11" width="14" height="9" x="7" y="20" fill="#A8ADB4" opacity=".6" rx="1"/><rect id="Rectangle-19-Copy-12" width="14" height="9" x="24" y="20" fill="#A8ADB4" opacity=".3" rx="1"/><rect id="Rectangle-19-Copy-13" width="14" height="9" x="41" y="20" fill="#A8ADB4" opacity=".3" rx="1"/><rect id="Rectangle-19-Copy-14" width="14" height="9" x="58" y="20" fill="#A8ADB4" opacity=".3" rx="1"/><rect id="Rectangle-19-Copy-15" width="14" height="9" x="75" y="20" fill="#A8ADB4" opacity=".3" rx="1"/><path id="Rectangle-19-Copy-16" fill="#A8ADB4" d="M8,14 L52,14 C52.5522847,14 53,14.4477153 53,15 L53,15 C53,15.5522847 52.5522847,16 52,16 L8,16 C7.44771525,16 7,15.5522847 7,15 L7,15 C7,14.4477153 7.44771525,14 8,14 Z" opacity=".3"/></g></g></g></g></g></svg>